<?xml version="1.0" standalone="no"?>
<!DOCTYPE svg PUBLIC "-//W3C//DTD SVG 1.1//EN" "http://www.w3.org/Graphics/SVG/1.1/DTD/svg11.dtd">
<svg xmlns="http://www.w3.org/2000/svg"><metadata>This SVG WebFont was generated by YouWorkForThem.
Copyright (c) 2013 by GreyscaleType. All rights reserved.</metadata><defs><font horiz-adv-x="1583" id="ywftsvg"><font-face ascent="1548" bbox="-215 -492 2615 1864" cap-height="1516" descent="-500" font-family="" font-stretch="normal" font-weight="300" panose-1="0 0 0 0 0 0 0 0 0 0" underline-position="0" underline-thickness="0" unicode-range="U+0020-FB02" units-per-em="2048" x-height="1094"/><missing-glyph horiz-adv-x="487"/><glyph glyph-name=".notdef" horiz-adv-x="487"/><glyph glyph-name="glyph1" horiz-adv-x="0"/><glyph glyph-name="glyph2" horiz-adv-x="681"/><glyph glyph-name="space" horiz-adv-x="491" unicode=" "/><glyph d="M266 133v-133h-135v133h135zM145 1516h103l-10 -1254h-82z" glyph-name="exclam" horiz-adv-x="440" unicode="!"/><glyph d="M141 1516h90l-10 -410h-71zM334 1516h92l-10 -410h-72z" glyph-name="quotedbl" horiz-adv-x="587" unicode="&quot;"/><glyph d="M1176 506l163 498h-567l-162 -498h566zM1888 1094v-90h-434l-164 -498h496v-92h-524l-136 -414h-114l135 414h-565l-138 -414h-112l135 414h-326v92h355l161 498h-413v90h444l137 422h115l-139 -422h567l137 422h115l-137 -422h405z" glyph-name="numbersign" horiz-adv-x="1951" unicode="#"/><glyph d="M1184 385q0 84 -40 148.5t-114 105.5t-138.5 64.5t-152.5 44.5v-672h9q94 -2 191 30.5t171 106.5t74 172zM666 866v568q-94 -8 -179.5 -38t-154 -98.5t-68.5 -160.5q0 -33 7.5 -61.5t26.5 -51.5t34.5 -40t50.5 -32.5t51.5 -24.5t61.5 -20.5t57 -15.5t60.5 -14.5 t52.5 -10.5zM1296 387q0 -137 -102 -236.5t-248 -138.5q-59 -16 -201 -28h-2q-2 -2 -4 -2v-199h-73v201q-270 20 -557 145l24 92q279 -121 533 -143v686q-236 47 -324 90q-184 90 -184 281q0 125 83 216t193.5 132t231.5 47v217h73v-217h15q92 2 239.5 -37t268.5 -88 l-21 -88q-342 121 -489 117h-13v-586q104 -18 193.5 -50t176.5 -84t137 -136.5t50 -190.5z" glyph-name="dollar" horiz-adv-x="1413" unicode="$"/><glyph d="M700 1142.5q0 319.5 -243 319.5q-242 0 -242 -319.5t242 -319.5q243 0 243 319.5zM1790 371q0 139 -56.5 228t-187.5 89t-187 -89t-56 -228q0 -319 243.5 -319t243.5 319zM788 1143q0 -395 -331 -395q-172 0 -251 107.5t-79 287.5t79 287.5t251 107.5t251.5 -107.5 t79.5 -287.5zM1374 1516h105l-846 -1516h-103zM1876 371q0 -180 -79 -289t-251 -109t-250.5 108.5t-78.5 289.5q0 178 78.5 285.5t250.5 107.5t251 -107.5t79 -285.5z" glyph-name="percent" horiz-adv-x="2041" unicode="%"/><glyph d="M971 147l-424 646q-332 -197 -332 -387q0 -117 78 -197t180 -110.5t215 -30.5q156 -1 283 79zM870 1225q0 102 -74.5 161.5t-181.5 59.5l-2 -2q-94 0 -150 -61.5t-56 -157.5q0 -111 143 -301h2q2 -2 10 -13.5t12 -15.5q111 68 204 157t93 173zM1223 649h88 q0 -348 -219 -530l100 -152l-74 -43l-94 146q-141 -86 -334 -86q-102 0 -198.5 23.5t-182.5 70.5t-138 132t-52 193q0 137 112.5 253t266.5 200q-174 236 -174 371q0 129 77.5 213t206.5 84q147 0 244.5 -77t97.5 -220q0 -106 -104.5 -213t-229.5 -180l422 -635 q185 161 185 450z" glyph-name="ampersand" horiz-adv-x="1439" unicode="&amp;"/><glyph d="M141 1516h90l-10 -410h-71z" glyph-name="quotesingle" horiz-adv-x="423" unicode="'"/><glyph d="M457 -213l-62 -55q-47 51 -90 125q-197 328 -196 735q0 416 196 737q43 74 90 125l62 -55q-39 -49 -86 -135q-158 -307 -158 -672q0 -362 158 -670q47 -86 86 -135z" glyph-name="parenleft" horiz-adv-x="563" unicode="("/><glyph d="M401 592q0 -408 -196 -735q-43 -74 -90 -125l-62 55q39 49 86 135q158 307 158 670q0 365 -158 672q-47 86 -86 135l62 55q47 -51 90 -125q196 -321 196 -737z" glyph-name="parenright" horiz-adv-x="567" unicode=")"/><glyph d="M733 1204v-63l-260 8l137 -221l-55 -31l-121 227l-125 -227l-53 31l135 221l-260 -8v63l260 -8l-135 221l53 31l125 -229l121 229l55 -31l-137 -221z" glyph-name="asterisk" horiz-adv-x="864" unicode="*"/><glyph d="M1071 729v-90h-412v-420h-90v420h-428v90h428v418h90v-418h412z" glyph-name="plus" horiz-adv-x="1232" unicode="+"/><glyph d="M281 133v-133l-62 -166h-59l43 166h-56v133h134z" glyph-name="comma" horiz-adv-x="454" unicode=","/><glyph d="M850 582v-88h-709v88h709z" glyph-name="hyphen" horiz-adv-x="1042" unicode="-"/><glyph d="M283 133v-133h-136v133h136z" glyph-name="period" horiz-adv-x="454" unicode="."/><glyph d="M942 1516h115l-912 -1516h-114z" glyph-name="slash" horiz-adv-x="1167" unicode="/"/><glyph d="M1249 758q0 139 -24.5 253.5t-79.5 215t-158.5 157t-249 56.5t-250 -56.5t-160 -156t-80 -215t-24.5 -255t24.5 -255t80 -216t160 -156.5t249.5 -56q117 0 208 38t147.5 101t92.5 153.5t50 185.5t14 206zM1356 758q0 -166 -32 -300t-100.5 -244t-192.5 -170t-294 -60 q-137 0 -244.5 41t-177 110.5t-114.5 170t-63.5 211t-18.5 241.5t18.5 241.5t64.5 210t115.5 169t176 110.5t243.5 41q170 0 293 -60.5t192.5 -171t101.5 -243.5t32 -297z" glyph-name="zero" horiz-adv-x="1527" unicode="0"/><glyph d="M651 1516v-1516h-104v1403l-438 -277l-50 80l488 310h104z" glyph-name="one" horiz-adv-x="847" unicode="1"/><glyph d="M1227 92v-92h-1102v84h-2l704 704q61 61 99.5 104.5t80.5 116t42 132.5q0 98 -69 169.5t-160 101.5t-187 30q-315 0 -430 -250l-80 43q143 297 510 297q123 0 235.5 -37t196.5 -127t84 -217q0 -57 -21.5 -114.5t-66.5 -117t-76 -93t-86 -91.5l-635 -643h963z" glyph-name="two" horiz-adv-x="1327" unicode="2"/><glyph d="M1204 401q0 -133 -90 -231t-212 -142t-251 -44q-178 0 -332.5 87t-199.5 246l82 35q37 -133 169 -205.5t281 -72.5q166 0 307.5 92t141.5 248q0 154 -142.5 242.5t-306.5 88.5h-237v84h229q150 0 280 81t130 223q0 143 -135.5 225t-288.5 82q-313 0 -426 -250l-80 43 q143 297 506 297q121 0 236.5 -40t201.5 -131t86 -216q0 -127 -86 -219.5t-217 -132.5q150 -41 252 -143t102 -247z" glyph-name="three" horiz-adv-x="1355" unicode="3"/><glyph d="M215 494h758v905zM1292 494v-91h-217v-403h-102v403h-875v91l856 1022h121v-1022h217z" glyph-name="four" horiz-adv-x="1439" unicode="4"/><glyph d="M1186 471q0 -219 -167 -356.5t-390 -137.5q-160 0 -300.5 76t-209.5 213l84 49q57 -115 175 -180t251 -65q180 0 317 112.5t137 288.5q0 193 -129 297t-325 104q-211 0 -357 -145l-90 2l60 776l2 4h876v-90h-784l-47 -577q152 113 356 112q236 0 388.5 -126t152.5 -357z " glyph-name="five" horiz-adv-x="1286" unicode="5"/><glyph d="M1190 473q0 190 -131 295.5t-326 105.5q-180 0 -320.5 -109.5t-140.5 -285.5q0 -174 141.5 -289.5t319.5 -115.5t317.5 112.5t139.5 286.5zM1292 465q0 -217 -173 -351t-396 -134q-168 0 -290 62t-188.5 175t-96 245t-29.5 292q0 162 31.5 295t100 243.5t192.5 172 t292 61.5q276 0 434 -172l-73 -54q-129 135 -361 136q-117 0 -207 -39t-146 -103.5t-93 -154.5t-51.5 -184.5t-14.5 -200.5q0 -55 6 -111q59 147 205 231t314 84q238 0 391 -130t153 -363z" glyph-name="six" horiz-adv-x="1415" unicode="6"/><glyph d="M1090 1516v-68l-703 -1448h-102l692 1425h-918v91h1031z" glyph-name="seven" horiz-adv-x="1214" unicode="7"/><glyph d="M1122 410q0 205 -334 311q-115 29 -116.5 29t-116.5 -29q-332 -106 -332 -311q0 -164 137.5 -251t311.5 -87q176 0 313 87t137 251zM1081 1116q0 154 -123.5 237t-285.5 83t-285 -83t-123 -237q0 -197 301 -278q72 -20 107 -20.5t106 20.5q303 81 303 278zM1227 395 q0 -137 -88 -235.5t-210 -139t-257 -40.5q-98 0 -193.5 24.5t-177.5 72.5t-132 131t-50 187q0 102 65.5 184.5t148.5 126.5t185 74q-147 39 -249.5 123t-102.5 221q0 195 151.5 298.5t354.5 103.5q129 0 240.5 -41t190.5 -134.5t79 -226.5q0 -135 -102.5 -220t-252.5 -124 q102 -31 185.5 -74.5t149 -126t65.5 -184.5z" glyph-name="eight" horiz-adv-x="1376" unicode="8"/><glyph d="M1137 1053q0 172 -142.5 289.5t-318.5 117.5q-178 0 -316.5 -112.5t-138.5 -286.5q0 -193 129 -298.5t326 -105.5q180 0 320.5 110t140.5 286zM1290 780q0 -162 -31.5 -295t-100 -243.5t-191.5 -172t-293 -61.5q-279 0 -434 172l73 53q129 -137 361 -137 q143 0 247.5 57.5t160 159t80 216t24.5 251.5q0 55 -6 111q-59 -147 -205 -231.5t-311 -84.5q-238 0 -391.5 129.5t-153.5 364.5q0 217 171 350t394 133q135 0 240.5 -42t173 -112.5t111.5 -172t62.5 -210t18.5 -235.5z" glyph-name="nine" horiz-adv-x="1462" unicode="9"/><glyph d="M283 133v-133h-136v133h136zM283 918v-134h-136v134h136z" glyph-name="colon" horiz-adv-x="454" unicode=":"/><glyph d="M283 918v-134h-136v134h136zM281 133v-133l-62 -166h-59l43 166h-56v133h134z" glyph-name="semicolon" horiz-adv-x="454" unicode=";"/><glyph d="M152 698l868 -368l-35 -80l-922 391v113l922 393l35 -80z" glyph-name="less" horiz-adv-x="1181" unicode="&lt;"/><glyph d="M940 524v-86h-799v86h799zM940 928v-88h-799v88h799z" glyph-name="equal" horiz-adv-x="1101" unicode="="/><glyph d="M1118 754v-113l-921 -391l-35 80l868 368l-868 369l35 80z" glyph-name="greater" horiz-adv-x="1181" unicode=">"/><glyph d="M508 104v-104h-105v104h105zM1061 1122q0 -113 -57.5 -185.5t-139.5 -109t-165 -71.5t-140 -98.5t-57 -159.5q-2 -8 -2 -64q0 -117 2 -174h-92v270q0 88 42 151.5t103 97.5t135 69t135.5 63.5t103.5 83t42 125.5q0 135 -117 228.5t-256 93.5q-106 0 -228 -41t-210 -107 l-58 72q27 20 78 49q213 115 410 115q131 0 242.5 -58.5t177.5 -168.5q51 -89 51 -181z" glyph-name="question" horiz-adv-x="1175" unicode="?"/><glyph d="M881 573l41 338q-121 94 -199 95q-117 0 -175.5 -96.5t-58.5 -221.5q0 -188 164 -188q60 -1 228 73zM1352 793q0 -184 -76 -299t-250 -115q-57 0 -100 28.5t-52 84.5q-143 -86 -235 -86q-123 0 -187.5 74.5t-64.5 201.5q0 172 83 295t245 123q113 0 219 -82l10 74h100 l-69 -582q-2 -23 26.5 -37t51.5 -14q29 0 63 14q80 31 116 112t36 177q0 248 -124 382t-368 134q-227 0 -390 -162t-163 -389q0 -229 138.5 -360t367.5 -131q111 0 221 47l33 -74q-125 -51 -254 -51q-266 0 -428 150.5t-162 414.5q0 262 187.5 449.5t451.5 187.5 q266 0 420 -150.5t154 -416.5z" glyph-name="at" horiz-adv-x="1507" unicode="@"/><glyph d="M401 489h783l-391 934zM856 1516l639 -1516h-106l-170 403h-852l-168 -403h-109l641 1516h125z" glyph-name="A" horiz-adv-x="1572" unicode="A"/><glyph d="M1249 391q0 182 -107.5 258t-297.5 76h-563v-633h589q158 0 268.5 74.5t110.5 224.5zM1200 1100q0 326 -389 325h-530v-616h172.5h203h172.5q156 2 263.5 73t107.5 218zM1354 387q0 -188 -140.5 -287.5t-334.5 -99.5h-701v1516h641q217 0 351.5 -99.5t134.5 -310.5 q0 -248 -258 -332q307 -72 307 -387z" glyph-name="B" horiz-adv-x="1505" unicode="B"/><glyph d="M1343 315l80 -47q-92 -145 -244.5 -214.5t-336.5 -69.5q-350 0 -531.5 207.5t-181.5 564.5q0 348 186.5 561t526.5 213q178 0 329.5 -72t245.5 -213l-86 -45q-82 119 -211 179.5t-278 60.5q-291 0 -451 -193.5t-160 -490.5q0 -311 154 -496.5t457 -185.5q339 -1 501 241z " glyph-name="C" horiz-adv-x="1476" unicode="C"/><glyph d="M1288 758q0 309 -161.5 489t-467.5 180h-378v-1335h378q305 0 467 178.5t162 487.5zM1391 758q0 -354 -190.5 -556t-541.5 -202h-481v1516h481q352 0 542 -201t190 -557z" glyph-name="D" horiz-adv-x="1550" unicode="D"/><glyph d="M1153 90v-90h-975v1516h975v-91h-872v-602h772v-92h-772v-641h872z" glyph-name="E" horiz-adv-x="1234" unicode="E"/><glyph d="M1155 1516v-91h-874v-602h772v-92h-772v-731h-103v1516h977z" glyph-name="F" horiz-adv-x="1236" unicode="F"/><glyph d="M1446 811v-811h-88l-10 258q-94 -125 -230.5 -199.5t-286.5 -74.5q-350 0 -531 208.5t-181 565.5q0 346 186.5 559t525.5 213q174 0 325 -68.5t245 -204.5l-84 -49q-84 115 -211 173.5t-275 58.5q-291 0 -450.5 -192.5t-159.5 -489.5q0 -311 153.5 -496.5t456.5 -185.5 q156 0 292.5 91t219.5 234v324h-434v86h537z" glyph-name="G" horiz-adv-x="1576" unicode="G"/><glyph d="M1432 1516v-1516h-103v733h-1048v-733h-103v1516h103v-693h1048v693h103z" glyph-name="H" horiz-adv-x="1630" unicode="H"/><glyph d="M281 1516v-1516h-103v1516h103z" glyph-name="I" horiz-adv-x="479" unicode="I"/><glyph d="M903 1516v-1045q0 -236 -133 -359.5t-369 -123.5q-129 0 -348 98l35 82q180 -82 303 -82q195 0 301.5 101.5t106.5 295.5v1033h104z" glyph-name="J" horiz-adv-x="1087" unicode="J"/><glyph d="M799 928l620 -928h-119l-573 852l-446 -451v-401h-103v1516h103v-990l968 990h129z" glyph-name="K" horiz-adv-x="1521" unicode="K"/><glyph d="M1155 96v-96h-977v1516h103v-1420h874z" glyph-name="L" horiz-adv-x="1175" unicode="L"/><glyph d="M1806 1516v-1516h-102v1380l-657 -1380h-111l-655 1380v-1380h-103v1516h141l674 -1407l670 1407h143z" glyph-name="M" horiz-adv-x="2004" unicode="M"/><glyph d="M1485 1516v-1516h-139l-1065 1382v-1382h-103v1516h121l1083 -1405v1405h103z" glyph-name="N" horiz-adv-x="1683" unicode="N"/><glyph d="M1452 758q0 297 -161 489.5t-449.5 192.5t-449.5 -192.5t-161 -489.5q0 -311 154 -496.5t457 -185.5t456.5 185.5t153.5 496.5zM1554 758q0 -356 -181 -565t-531 -209t-531.5 208.5t-181.5 565.5q0 346 186.5 559t526.5 213t526 -213t186 -559z" glyph-name="O" horiz-adv-x="1697" unicode="O"/><glyph d="M1204 1087q0 172 -106.5 255t-282.5 83h-532v-655h542q57 0 127 18q252 74 252 299zM1309 1087q0 -190 -140.5 -297.5t-334.5 -107.5h-551v-682h-105v1516h645q217 0 351.5 -108t134.5 -321z" glyph-name="P" horiz-adv-x="1366" unicode="P"/><glyph d="M1452 748q0 297 -161 489.5t-449 192.5q-291 0 -451 -193t-160 -489q0 -311 154 -496.5t457 -185.5q250 0 405 133l-381 383l58 57l381 -381q147 177 147 490zM1374 186l211 -215l-57 -57l-211 215q-186 -156 -475 -156q-350 0 -531.5 209t-181.5 566q0 346 186.5 559 t526.5 213t526 -213t186 -559q0 -363 -180 -562z" glyph-name="Q" horiz-adv-x="1730" unicode="Q"/><glyph d="M1204 1087q0 172 -106.5 255t-282.5 83h-534v-655h544q57 0 127 18q252 74 252 299zM950 694l400 -694h-117l-389 682h-563v-682h-103v1516h645q217 0 351.5 -108t134.5 -321q0 -160 -98.5 -261t-260.5 -132z" glyph-name="R" horiz-adv-x="1486" unicode="R"/><glyph d="M1317 389q0 -102 -54.5 -183t-141.5 -127t-182 -70.5t-189 -24.5q-287 0 -621 145l25 92q334 -143 602 -143q98 0 196.5 29.5t176 103.5t77.5 176q0 76 -35.5 136.5t-84 97t-128 67.5t-132 45.5t-134.5 30.5q-229 49 -309 82q-205 90 -205 289q0 104 54.5 184t142.5 124 t183 66.5t190 22.5q205 0 536 -127l-20 -90q-324 121 -510 121q-74 0 -150 -15.5t-150.5 -48.5t-121.5 -94t-47 -141q0 -82 57 -136.5t147.5 -84t201 -53t221 -55.5t200.5 -78t147.5 -133t57.5 -208z" glyph-name="S" horiz-adv-x="1429" unicode="S"/><glyph d="M1198 1516v-93h-500v-1423h-104v1423h-500v93h1104z" glyph-name="T" horiz-adv-x="1198" unicode="T"/><glyph d="M1405 1516v-885q0 -311 -153.5 -478t-461 -167t-460 165.5t-152.5 479.5v885h103v-877q0 -561 509.5 -561t509.5 561v877h105z" glyph-name="U" horiz-adv-x="1585" unicode="U"/><glyph d="M1380 1516h111l-637 -1516h-125l-639 1516h111l590 -1424z" glyph-name="V" horiz-adv-x="1599" unicode="V"/><glyph d="M2101 1516h109l-469 -1516h-117l-475 1389l-475 -1389h-115l-469 1516h109l419 -1391l472 1391h118l473 -1391z" glyph-name="W" horiz-adv-x="2328" unicode="W"/><glyph d="M1300 1516h109l-606 -756l604 -760h-107l-557 698l-553 -698h-108l608 766l-596 750h109l545 -687z" glyph-name="X" horiz-adv-x="1536" unicode="X"/><glyph d="M1348 1516h114l-635 -934v-582h-104v582l-633 934h115l571 -854z" glyph-name="Y" horiz-adv-x="1574" unicode="Y"/><glyph d="M1311 90v-90h-1172v82l1018 1343h-1007v91h1144v-72l-1026 -1354h1043z" glyph-name="Z" horiz-adv-x="1411" unicode="Z"/><glyph d="M600 -266v-80h-465v2029h465v-81h-362v-1868h362z" glyph-name="bracketleft" horiz-adv-x="761" unicode="["/><glyph d="M182 1516l912 -1516h-115l-911 1516h114z" glyph-name="backslash" horiz-adv-x="1187" unicode="\"/><glyph d="M543 1683v-2029h-465v80h362v1868h-362v81h465z" glyph-name="bracketright" horiz-adv-x="741" unicode="]"/><glyph glyph-name="asciicircum" horiz-adv-x="1060" unicode="^"/><glyph d="M1130 -225v-88h-989v88h989z" glyph-name="underscore" horiz-adv-x="1271" unicode="_"/><glyph d="M238 1464l112 -260l-57 -20l-152 243z" glyph-name="grave" horiz-adv-x="512" unicode="`"/><glyph d="M989 219v608q-236 184 -401 185q-131 0 -216 -69t-118 -169t-33 -231q0 -207 86 -335t281 -128q29 0 57.5 4t62 14.5t56 17.5t61.5 24.5t54.5 24.5t58.5 28.5zM1087 1094v-1094h-79l-11 123q-10 -4 -48 -22.5t-51 -24.5t-49 -22.5t-54.5 -22.5t-51 -17.5t-55 -15.5 t-52.5 -8t-56 -4q-233 0 -347 157.5t-114 401.5q0 115 24.5 212t75.5 178t140.5 127t207.5 46q205 0 422 -174v160h98z" glyph-name="a" horiz-adv-x="1288" unicode="a"/><glyph d="M1032 543q0 131 -32.5 231t-117.5 169t-216 69q-168 0 -400 -185v-608q90 -47 132 -67.5t123 -46t145 -25.5q195 0 280.5 128t85.5 335zM1135 544.5q0 -243.5 -115 -401t-348 -157.5q-68 0 -152 25.5t-123 44t-139 67.5l-12 -123h-78v1516h98v-582q209 174 420 174 q229 0 339 -160t110 -403.5z" glyph-name="b" horiz-adv-x="1292" unicode="b"/><glyph d="M1130 860l-88 -43q-57 100 -156.5 151.5t-219.5 51.5q-209 0 -327 -131t-118 -344q0 -209 120 -343t325 -134q248 0 364 188l88 -41q-72 -115 -191.5 -173t-260.5 -58q-250 0 -398.5 154.5t-148.5 406.5q0 256 146.5 408.5t400.5 152.5q150 0 272 -61.5t192 -184.5z" glyph-name="c" horiz-adv-x="1202" unicode="c"/><glyph d="M989 213v614q-236 184 -401 185q-131 0 -216 -69t-118 -169t-33 -231q0 -207 86 -338t281 -131q29 0 57.5 4t62 14t56 17.5t61.5 25t54.5 24.5t58.5 28.5zM1087 1516v-1516h-79l-11 123q-10 -4 -48 -22.5t-51 -24.5t-49 -22.5t-54.5 -22.5t-51 -17.5t-55 -15.5t-52.5 -8 t-56 -4q-233 0 -347 157.5t-114 401.5q0 115 24.5 212t75.5 178t140.5 127t207.5 46q205 0 422 -174v582h98z" glyph-name="d" horiz-adv-x="1284" unicode="d"/><glyph d="M227 600h809q-18 422 -370 422q-190 0 -307.5 -114.5t-131.5 -307.5zM1135 516h-910q6 -197 123 -323.5t309 -126.5q123 0 422 84l15 -84q-301 -82 -428 -82q-250 0 -398.5 154.5t-148.5 406.5q0 256 146.5 408.5t400.5 152.5q127 0 220 -43t146 -123t78 -179t25 -224 v-21z" glyph-name="e" horiz-adv-x="1263" unicode="e"/><glyph d="M680 1505l-14 -82q-47 14 -84 15q-246 0 -246 -234v-110h282v-80h-282v-1014h-98v1014h-164v80h164v120q0 152 84 232t233 80q57 -1 125 -21z" glyph-name="f" horiz-adv-x="780" unicode="f"/><glyph d="M989 252v571q-78 72 -194.5 130.5t-206.5 58.5q-193 0 -280 -133.5t-87 -335.5q0 -432 334 -432q29 0 59.5 4t54 8t57.5 15.5t51.5 17.5t56 23.5t50 22.5t55.5 25.5t50 24.5zM1087 1094v-1139q0 -186 -104 -290.5t-293 -104.5q-59 0 -131 11t-112.5 21.5t-133 36 t-116.5 31.5l24 80q27 -6 108 -28.5t122 -33t105.5 -20.5t119.5 -10q129 0 220 63.5t91 186.5v254q-4 -2 -48 -22.5t-54.5 -25t-49 -21.5t-54 -21.5t-50.5 -16.5t-57.5 -15t-52 -7.5t-56.5 -4.5q-229 0 -337.5 145.5t-108.5 381.5q0 113 24.5 210t75.5 178t140.5 128 t207.5 47q209 0 422 -176l12 162h86z" glyph-name="g" horiz-adv-x="1288" unicode="g"/><glyph d="M1081 776v-776h-98v756q0 125 -80 190.5t-205 65.5q-147 0 -432 -211v-801h-98v1513h98v-608q102 80 234.5 141.5t236.5 61.5q147 0 245.5 -92.5t98.5 -239.5z" glyph-name="h" horiz-adv-x="1234" unicode="h"/><glyph d="M272 1094v-1094h-98v1094h98zM291 1444v-131h-133v131h133z" glyph-name="i" horiz-adv-x="475" unicode="i"/><glyph d="M485 1094v-1090q0 -162 -89 -249t-249 -87q-57 0 -137 15l19 81q57 -10 106 -10q252 0 252 252v1088h98zM498 1452v-123h-127v123h127z" glyph-name="j" horiz-adv-x="684" unicode="j"/><glyph d="M621 700l444 -700h-113l-399 631l-287 -297v-334h-98v1513h98v-1050l615 631h123z" glyph-name="k" horiz-adv-x="1177" unicode="k"/><glyph d="M266 1513v-1513h-98v1513h98z" glyph-name="l" horiz-adv-x="462" unicode="l"/><glyph d="M1774 776v-776h-99v756q0 125 -79.5 190.5t-204.5 65.5q-131 0 -375 -178q6 -55 6 -58v-776h-100v756q0 123 -78 189.5t-205 66.5t-373 -174v-838h-98v1094h84l8 -154q242 168 416 168q102 0 189 -48t128 -136q246 184 437 184q147 0 245.5 -92.5t98.5 -239.5z" glyph-name="m" horiz-adv-x="1955" unicode="m"/><glyph d="M1081 776v-776h-98v756q0 125 -80 190.5t-205 65.5q-147 0 -432 -211v-801h-98v1094h88l8 -185q274 199 473 199q147 0 245.5 -92.5t98.5 -239.5z" glyph-name="n" horiz-adv-x="1263" unicode="n"/><glyph d="M1110 545q0 211 -118 344t-326.5 133t-326.5 -133t-118 -344q0 -209 119 -343t325.5 -134t325.5 134t119 343zM1212 545q0 -252 -148.5 -406.5t-398 -154.5t-398 154.5t-148.5 406.5q0 256 146.5 408.5t400.5 152.5t400 -152.5t146 -408.5z" glyph-name="o" horiz-adv-x="1341" unicode="o"/><glyph d="M1032 545q0 205 -88 337t-280 132q-172 0 -398 -187v-608q10 -6 60.5 -30.5t69 -33t62.5 -26.5t71.5 -25.5t65.5 -14.5t71 -7q195 0 280.5 128t85.5 335zM1137 545q0 -244 -116 -401.5t-349 -157.5q-147 0 -406 135v-613h-98v1586h82l14 -162q203 178 420 178 q119 0 209 -46t141 -127t77 -179t26 -213z" glyph-name="p" horiz-adv-x="1296" unicode="p"/><glyph d="M987 219v608q-225 186 -399 187q-131 0 -216 -68.5t-118 -169t-33 -231.5q0 -207 86 -335t281 -128q25 0 53.5 4t49 8t54 16.5t48 16.5t53.5 22.5t46 21.5t50 25.5t45 22.5zM1399 -240v-75l-324 -177h-88v613q-258 -135 -405 -135q-233 0 -348 158.5t-115 400.5 q0 115 24.5 213t75.5 179t141.5 127t208.5 46q207 0 422 -178l13 162h83v-1504z" glyph-name="q" horiz-adv-x="1304" unicode="q"/><glyph d="M772 1098l-14 -94q-61 8 -94 8q-143 0 -402 -209v-803h-100v1094h86l10 -183l2 -2q250 199 428 199q16 0 84 -10z" glyph-name="r" horiz-adv-x="870" unicode="r"/><glyph d="M997 283q0 -102 -71.5 -174t-164.5 -99.5t-192 -27.5q-174 0 -450 104l22 86q254 -96 430 -96q121 0 223.5 49t102.5 156q0 100 -76 158.5t-184.5 83t-216 50t-183 86t-75.5 164.5q0 98 66.5 168t154.5 96.5t184 26.5q160 0 394 -88l-25 -88q-223 84 -363 84 q-55 0 -104 -8t-99.5 -27.5t-80 -60.5t-29.5 -99q0 -55 41 -93t105.5 -58.5t143.5 -37.5t157.5 -42t143 -58.5t105.5 -99t41 -155.5z" glyph-name="s" horiz-adv-x="1126" unicode="s"/><glyph d="M643 1094v-80h-285v-832q0 -96 179 -96q63 0 96 4v-82q-86 -8 -127 -8q-102 0 -174 38t-72 132v844h-186v80h186v333h98v-333h285z" glyph-name="t" horiz-adv-x="800" unicode="t"/><glyph d="M1081 1094v-1094h-84l-12 186q-104 -80 -235.5 -140t-237.5 -60q-145 0 -244.5 93t-99.5 238v777h98v-756q0 -125 79 -191.5t206 -66.5q150 0 432 213v801h98z" glyph-name="u" horiz-adv-x="1286" unicode="u"/><glyph d="M922 1094h102l-408 -1094h-127l-409 1094h104l369 -1002z" glyph-name="v" horiz-adv-x="1159" unicode="v"/><glyph d="M1393 1094h100l-328 -1094h-104l-275 954l-272 -954h-106l-328 1094h100l285 -967l270 967h103l270 -967z" glyph-name="w" horiz-adv-x="1613" unicode="w"/><glyph d="M602 549l408 -549h-113l-352 481l-355 -481h-110l405 549l-401 545h111l350 -480l348 480h113z" glyph-name="x" horiz-adv-x="1171" unicode="x"/><glyph d="M965 1094h104l-625 -1583h-106l233 587l-491 996h106l430 -893z" glyph-name="y" horiz-adv-x="1226" unicode="y"/><glyph d="M1051 84v-84h-918v68l780 942h-751v84h882v-70l-774 -940h781z" glyph-name="z" horiz-adv-x="1185" unicode="z"/><glyph d="M424 12v103q0 109 -9 172t-42 116.5t-98.5 77t-174.5 25.5v94q70 2 122 14.5t86 33t57.5 50t35 66.5t17.5 81t6 92v101v58q0 102 39 173.5t108.5 108.5t147.5 52.5t178 15.5v-74q-80 0 -142.5 -11t-124 -40t-94 -85t-32.5 -138v-117q0 -74 -4 -127t-20.5 -117.5 t-55.5 -110.5t-100 -73q37 -16 66.5 -42t49 -51.5t32.5 -67.5t19.5 -69.5t9.5 -80t4 -77t0 -80.5t-1 -71q0 -86 31.5 -143t92 -85t122 -37t147.5 -9v-78q-98 0 -176 16.5t-148.5 53.5t-109.5 107.5t-39 172.5z" glyph-name="braceleft" horiz-adv-x="917" unicode="{"/><glyph d="M225 1686v-2030h-84v2030h84z" glyph-name="bar" horiz-adv-x="387" unicode="|"/><glyph d="M573 115v-103q0 -102 -38.5 -172.5t-109.5 -107.5t-148.5 -53.5t-176.5 -16.5v78q86 0 147.5 9t122 37t92.5 85t32 143q0 14 -1 70.5t0 81t4 77t9 80t19.5 69.5t33 67.5t49 51.5t66.5 42q-61 27 -100 73t-55.5 110.5t-20.5 117.5t-4 127v117q0 82 -33 138t-94.5 85 t-124 40t-142.5 11v74q100 0 178 -15.5t148 -52.5t108.5 -108.5t38.5 -173.5v-58v-103.5t6.5 -88.5t17.5 -83t34.5 -63.5t57.5 -53t86 -31t122 -15.5v-94q-109 -2 -174.5 -25.5t-98 -77t-42 -116.5t-9.5 -172z" glyph-name="braceright" horiz-adv-x="917" unicode="}"/><glyph d="M741 635l56 -27q-25 -76 -71 -130t-114 -54q-61 0 -110 34t-90 66.5t-80 32.5q-47 0 -83 -43t-52 -96l-56 26q66 184 185 185q78 0 157.5 -66.5t122.5 -66.5q45 0 82 43t53 96z" glyph-name="asciitilde" horiz-adv-x="958" unicode="~"/><glyph d="M131 1382v134h135v-134h-135zM252 0h-102l10 1253h82z" glyph-name="exclamdown" horiz-adv-x="440" unicode="¡"/><glyph d="M616 88l164 934q-4 0 -12 1t-10 1q-213 0 -332 -130t-119 -347q0 -166 77.5 -292t231.5 -167zM1221 852l-91 -27q-82 139 -247 183l-166 -938q4 0 12 -1t12 -1q256 0 377 186l90 -29q-70 -119 -191.5 -179t-266.5 -60q-8 0 -23.5 1t-24.5 1l-30 -176l-103 18l31 174 q-193 45 -295 192.5t-102 350.5q0 256 146.5 408.5t400.5 152.5q31 0 45 -2l30 176l103 -18l-31 -172q226 -54 324 -240z" glyph-name="cent" horiz-adv-x="1396" unicode="¢"/><glyph d="M1229 1444l-12 -86q-293 80 -422 80q-113 0 -195 -35t-130 -90.5t-75.5 -140.5t-37 -166.5t-9.5 -188.5h506v-119h-506v-577h807v-121h-1065v121h146v577h-146v119h146q0 127 14 227.5t52 192.5t99.5 153.5t161 97.5t232.5 36q158 0 434 -80z" glyph-name="sterling" horiz-adv-x="1392" unicode="£"/><glyph d="M1018 542.5q0 145.5 -101.5 246t-245 100.5t-244.5 -100.5t-101 -246t101 -245.5t244.5 -100t245 100t101.5 245.5zM1020 262l151 -151l-65 -66l-154 152q-121 -98 -280.5 -98.5t-280.5 98.5l-151 -152l-66 66l152 151q-98 121 -99 281q0 162 99 282l-152 150l66 65 l151 -149q119 96 281 96t280 -96l154 149l65 -65l-151 -150q96 -119 96 -282q0 -162 -96 -281z" glyph-name="currency" horiz-adv-x="1347" unicode="¤"/><glyph d="M1329 1516h115l-633 -932h500v-105h-502v-80h502v-102h-502v-297h-104v297h-500v102h500v80h-500v105h500l-633 932h114l572 -854z" glyph-name="yen" horiz-adv-x="1507" unicode="¥"/><glyph d="M236 541v-885h-95v885h95zM236 1686v-885h-95v885h95z" glyph-name="brokenbar" horiz-adv-x="387" unicode="¦"/><glyph d="M891 594q0 125 -97.5 196.5t-228.5 71.5t-225 -58.5t-94 -180.5q0 -82 70.5 -137.5t153.5 -75t163 -19.5q104 0 181 52.5t77 150.5zM987 4q0 -162 -128 -248t-298 -86q-176 0 -450 115l18 86q256 -113 434 -113q127 0 227.5 63.5t100.5 182.5q0 82 -41 139.5t-105.5 87 t-143.5 51t-157.5 43t-143 53.5t-105.5 91t-41 145q0 119 78.5 201t199.5 109q-129 39 -203.5 102.5t-74.5 181.5q0 156 120.5 241t284.5 85q154 0 393 -96l-20 -86q-231 94 -367 94q-129 0 -224 -57.5t-95 -178.5q0 -86 76.5 -134t185 -74.5t217.5 -60.5t185.5 -119 t76.5 -222q0 -215 -231 -266q231 -101 231 -330z" glyph-name="section" horiz-adv-x="1122" unicode="§"/><glyph d="M532 1384v-131h-133v131h133zM281 1384v-131h-134v131h134z" glyph-name="dieresis" horiz-adv-x="700" unicode="¨"/><glyph d="M825 575l33 -20q-74 -115 -240 -115q-141 0 -215.5 85t-74.5 231q0 141 75.5 229t214.5 88q162 0 238 -117l-35 -16q-68 96 -203 96q-119 0 -184 -78.5t-65 -201.5q0 -127 63.5 -203t185.5 -76q141 0 207 98zM1059 757.5q0 186.5 -132 318.5t-318.5 132t-318.5 -132 t-132 -318.5t132 -318.5t318.5 -132t318.5 132t132 318.5zM1100 758q0 -203 -144.5 -346.5t-347 -143.5t-346 143.5t-143.5 346.5t143.5 346t346 143t347 -143t144.5 -346z" glyph-name="copyright" horiz-adv-x="1236" unicode="©"/><glyph d="M723 909v430q-168 129 -281 129q-135 0 -196.5 -93t-61.5 -236.5t60.5 -234.5t195.5 -91q86 0 283 96zM799 1534v-784h-56l-14 86q-197 -98 -293 -99q-166 0 -249 114t-83 288q0 176 79 290.5t245 114.5q141 0 295 -125v115h76z" glyph-name="ordfeminine" horiz-adv-x="978" unicode="ª"/><glyph d="M178 758l352 -537h-114l-353 537l353 534h114zM412 758l352 -537h-115l-352 537l352 534h115z" glyph-name="guillemotleft" horiz-adv-x="925" unicode="«"/><glyph d="M815 891q0 139 -160 139h-219v-270h223q61 0 108.5 36t47.5 95zM711 731l163 -287h-47l-159 281h-232v-281h-41v623h264q88 0 143.5 -45t55.5 -131q0 -66 -40.5 -108t-106.5 -52zM1059 756q0 188 -132 320t-318.5 132t-318.5 -133t-132 -319.5t132 -317.5t318.5 -131 t318.5 131.5t132 317.5zM1100 755.5q0 -202.5 -144.5 -346t-347.5 -143.5q-201 0 -345 144.5t-144 345.5q0 203 143.5 347t346 144t347 -144.5t144.5 -347z" glyph-name="registered" horiz-adv-x="1236" unicode="®"/><glyph d="M850 1548v-88h-709v88h709z" glyph-name="macron" horiz-adv-x="1042" unicode="¯"/><glyph d="M522 1292.5q0 63.5 -45 107.5t-108.5 44t-107.5 -44t-44 -107.5t44 -108.5t107.5 -45t108.5 45t45 108.5zM598 1292q0 -96 -67.5 -162.5t-162 -66.5t-161 67.5t-66.5 161.5t66.5 161t161 67t162 -67t67.5 -161z" glyph-name="degree" horiz-adv-x="759" unicode="°"/><glyph d="M1069 248v-86h-928v86h928zM1071 895v-90h-412v-420h-90v420h-428v90h428v418h90v-418h412z" glyph-name="plusminus" horiz-adv-x="1232" unicode="±"/><glyph d="M692 825v-75h-577v59l352 358q104 104 104 164q0 63 -59 98t-129 35q-145 0 -209 -129l-65 35q80 170 274 170q104 0 187 -52t83 -151q0 -90 -129 -219l-288 -293h456z" glyph-name="uni00B2" horiz-adv-x="751" unicode="²"/><glyph d="M653 971q0 -102 -94 -161.5t-203 -59.5q-100 0 -182 49t-111 141l76 29q18 -70 80 -106t137.5 -36t142 40t66.5 110t-67.5 108.5t-141.5 38.5h-139v74h133q68 0 130.5 34t62.5 97.5t-64.5 99t-134.5 35.5q-147 0 -209 -129l-69 37q82 168 278 168q104 0 193.5 -53 t89.5 -152q0 -115 -123 -172q66 -27 107.5 -76.5t41.5 -115.5z" glyph-name="uni00B3" horiz-adv-x="724" unicode="³"/><glyph d="M254 1464l96 -37l-149 -243l-60 20z" glyph-name="acute" horiz-adv-x="512" unicode="´"/><glyph d="M1044 1092v-1092h-83l-13 186q-104 -80 -235 -140t-238 -60q-154 0 -246 104v-487h-98v1489h98v-754q0 -125 79 -191.5t206 -66.5q143 0 432 213v799h98z" glyph-name="uni00B5" horiz-adv-x="1193" unicode="µ"/><glyph d="M961 1516v-1516h-105v682h-205q-195 0 -334 107.5t-139 297.5q0 213 133 321t351 108h299z" glyph-name="paragraph" horiz-adv-x="1095" unicode="¶"/><glyph d="M283 643v-133h-136v133h136z" glyph-name="periodcentered" horiz-adv-x="430" unicode="·"/><glyph d="M541 -258q0 -72 -66.5 -101.5t-150.5 -29.5q-86 0 -183 27l33 61q82 -23 137 -23q49 0 98.5 15.5t49.5 52.5q0 70 -135 70q-49 0 -95 -7l-41 39l115 154h86l-100 -131q39 6 78 6q174 0 174 -133z" glyph-name="cedilla" horiz-adv-x="702" unicode="¸"/><glyph d="M422 1534v-776h-86l-2 674l-209 -127l-43 67l264 162h76z" glyph-name="uni00B9" horiz-adv-x="567" unicode="¹"/><glyph d="M700 1142.5q0 319.5 -243 319.5q-242 0 -242 -319.5t242 -319.5q243 0 243 319.5zM788 1143q0 -395 -331 -395q-172 0 -251 107.5t-79 287.5t79 287.5t251 107.5t251.5 -107.5t79.5 -287.5z" glyph-name="ordmasculine" horiz-adv-x="901" unicode="º"/><glyph d="M276 1292l353 -534l-353 -537h-114l352 537l-352 534h114zM510 1292l352 -534l-352 -537h-115l353 537l-353 534h115z" glyph-name="guillemotright" horiz-adv-x="925" unicode="»"/><glyph d="M1294 274h332v383zM494 1534v-776h-86l-2 674l-209 -127l-43 67l264 162h76zM1323 1516h104l-845 -1516h-103zM1821 274v-75h-109v-199h-86v199h-444v65l442 512h88v-502h109z" glyph-name="onequarter" horiz-adv-x="1990" unicode="¼"/><glyph d="M494 1534v-776h-86l-2 674l-209 -127l-43 67l264 162h76zM1323 1516h104l-845 -1516h-103zM1880 76v-76h-577v59l352 359q104 104 104 164q0 63 -59.5 98t-128.5 35q-145 0 -209 -129l-66 35q80 170 275 170q104 0 187 -52.5t83 -150.5q0 -90 -129 -219l-289 -293h457z " glyph-name="onehalf" horiz-adv-x="1990" unicode="½"/><glyph d="M1294 274h332v383zM719 971q0 -102 -94.5 -161.5t-202.5 -59.5q-100 0 -182 50t-109 140l74 29q18 -68 79.5 -105t137.5 -37t143.5 40t67.5 110t-67.5 108.5t-143.5 38.5h-137v74h133q66 0 128 35t62 96q0 63 -64.5 99t-133.5 36q-143 0 -207 -129l-72 37q84 168 279 168 q104 0 194 -53t90 -152q0 -111 -125 -172q66 -27 108 -76.5t42 -115.5zM1323 1516h104l-845 -1516h-103zM1821 274v-75h-109v-199h-86v199h-444v65l442 512h88v-502h109z" glyph-name="threequarters" horiz-adv-x="1990" unicode="¾"/><glyph d="M1004 236l57 -72q-27 -20 -78 -49q-213 -115 -410 -115q-131 0 -242.5 58.5t-176.5 168.5q-51 88 -52 181q0 113 57.5 185.5t139.5 109t165 71.5t140.5 98.5t57.5 159.5q2 6 2 64q0 117 -2 174h92v-271q0 -88 -42 -151.5t-103.5 -97t-135.5 -68.5t-135.5 -63.5t-103 -83 t-41.5 -125.5q0 -135 116.5 -228.5t255.5 -93.5q106 0 228.5 41t210.5 107zM760 1530v-105h-105v105h105z" glyph-name="questiondown" horiz-adv-x="1245" unicode="¿"/><glyph d="M401 489h783l-391 934zM856 1516l639 -1516h-106l-170 403h-852l-168 -403h-109l641 1516h125zM715 1864l112 -260l-57 -21l-152 244z" glyph-name="Agrave" unicode="À"/><glyph d="M401 489h783l-391 934zM856 1516l639 -1516h-106l-170 403h-852l-168 -403h-109l641 1516h125zM877 1864l96 -37l-150 -244l-59 21z" glyph-name="Aacute" unicode="Á"/><glyph d="M401 489h783l-391 934zM856 1516l639 -1516h-106l-170 403h-852l-168 -403h-109l641 1516h125zM825 1839l195 -205l-47 -39l-174 154l-176 -154l-48 39l195 205h55z" glyph-name="Acircumflex" unicode="Â"/><glyph d="M401 489h783l-391 934zM856 1516l639 -1516h-106l-170 403h-852l-168 -403h-109l641 1516h125zM1065 1825l55 -27q-25 -76 -70.5 -130t-113.5 -54q-49 0 -91 20.5t-66.5 46t-57.5 46t-66 20.5q-47 0 -82.5 -43t-52.5 -96l-55 26q63 184 184 185q78 0 158 -66.5t123 -66.5 q45 0 82 43t53 96z" glyph-name="Atilde" unicode="Ã"/><glyph d="M987 1784v-131h-133v131h133zM735 1784v-131h-133v131h133zM401 489h783l-391 934zM856 1516l639 -1516h-106l-170 403h-852l-168 -403h-109l641 1516h125z" glyph-name="Adieresis" unicode="Ä"/><glyph d="M401 489h783l-391 934zM856 1516l639 -1516h-106l-170 403h-852l-168 -403h-109l641 1516h125zM838 1720.5q0 18.5 -13.5 30.5t-31.5 12q-16 0 -29.5 -13t-13.5 -30q0 -18 12 -31.5t30.5 -13.5t32 13.5t13.5 32zM895 1720q0 -43 -29.5 -71.5t-72.5 -28.5q-41 0 -71 29.5 t-30 70.5t30 71t71 30q43 0 72.5 -29t29.5 -72z" glyph-name="Aring" unicode="Å"/><glyph d="M590 489h620v936zM2187 88v-88h-977v403h-675l-269 -403h-106l1009 1516h1018v-89h-872v-606h770v-90h-770v-643h872z" glyph-name="AE" horiz-adv-x="2457" unicode="Æ"/><glyph d="M1016 -258q0 -72 -66.5 -101.5t-150.5 -29.5q-86 0 -183 27l33 61q82 -23 137 -23q49 0 98.5 15.5t49.5 52.5q0 70 -135 70q-49 0 -94 -7l-41 39l104 140q-315 23 -477 228.5t-162 541.5q0 348 186.5 561t526.5 213q178 0 329.5 -72t245.5 -213l-86 -45 q-82 119 -211 179.5t-278 60.5q-291 0 -451 -193.5t-160 -490.5q0 -311 154 -496.5t457 -185.5q340 0 501 241l80 -47q-178 -281 -571 -284l-88 -115q39 6 78 6q174 0 174 -133z" glyph-name="Ccedilla" horiz-adv-x="1531" unicode="Ç"/><glyph d="M1153 90v-90h-975v1516h975v-91h-872v-602h772v-92h-772v-641h872zM631 1864l112 -260l-57 -21l-151 244z" glyph-name="Egrave" horiz-adv-x="1331" unicode="È"/><glyph d="M1153 90v-90h-975v1516h975v-91h-872v-602h772v-92h-772v-641h872zM727 1864l96 -37l-149 -244l-60 21z" glyph-name="Eacute" horiz-adv-x="1331" unicode="É"/><glyph d="M1153 90v-90h-975v1516h975v-91h-872v-602h772v-92h-772v-641h872zM694 1839l197 -205l-47 -39l-176 154l-176 -154l-48 39l197 205h53z" glyph-name="Ecircumflex" horiz-adv-x="1331" unicode="Ê"/><glyph d="M870 1784v-131h-133v131h133zM618 1784v-131h-133v131h133zM1153 90v-90h-975v1516h975v-91h-872v-602h772v-92h-772v-641h872z" glyph-name="Edieresis" horiz-adv-x="1331" unicode="Ë"/><glyph d="M246 1516v-1516h-105v1516h105zM119 1864l112 -260l-57 -21l-151 244z" glyph-name="Igrave" horiz-adv-x="407" unicode="Ì"/><glyph d="M246 1516v-1516h-105v1516h105zM264 1864l96 -37l-151 -244l-57 21z" glyph-name="Iacute" horiz-adv-x="407" unicode="Í"/><glyph d="M246 1516v-1516h-105v1516h105zM221 1839l197 -205l-47 -39l-176 154l-177 -154l-47 39l197 205h53z" glyph-name="Icircumflex" horiz-adv-x="407" unicode="Î"/><glyph d="M389 1784v-131h-133v131h133zM137 1784v-131h-133v131h133zM246 1516v-1516h-105v1516h105z" glyph-name="Idieresis" horiz-adv-x="407" unicode="Ï"/><glyph d="M1534 758q0 309 -163 489t-468 180h-377v-618h420v-102h-420v-619h377q305 0 468 179.5t163 490.5zM1634 757.5q0 -356.5 -189.5 -557t-541.5 -200.5h-481v707h-227v102h227v707h481q352 0 541.5 -201t189.5 -557.5z" glyph-name="Eth" horiz-adv-x="1859" unicode="Ð"/><glyph d="M1485 1516v-1516h-139l-1065 1382v-1382h-103v1516h121l1083 -1405v1405h103zM1104 1825l55 -27q-25 -76 -71 -130t-113 -54q-49 0 -91 20.5t-66.5 46t-57.5 46t-66 20.5q-47 0 -83 -43t-52 -96l-55 26q66 184 184 185q78 0 158 -66.5t123 -66.5q45 0 82 43t53 96z" glyph-name="Ntilde" horiz-adv-x="1662" unicode="Ñ"/><glyph d="M1452 758q0 297 -161 489.5t-449.5 192.5t-449.5 -192.5t-161 -489.5q0 -311 154 -496.5t457 -185.5t456.5 185.5t153.5 496.5zM1554 758q0 -356 -181 -565t-531 -209t-531.5 208.5t-181.5 565.5q0 346 186.5 559t526.5 213t526 -213t186 -559zM702 1864l113 -260 l-57 -21l-152 244z" glyph-name="Ograve" horiz-adv-x="1681" unicode="Ò"/><glyph d="M1452 758q0 297 -161 489.5t-449.5 192.5t-449.5 -192.5t-161 -489.5q0 -311 154 -496.5t457 -185.5t456.5 185.5t153.5 496.5zM1554 758q0 -356 -181 -565t-531 -209t-531.5 208.5t-181.5 565.5q0 346 186.5 559t526.5 213t526 -213t186 -559zM961 1864l96 -37 l-152 -244l-57 21z" glyph-name="Oacute" horiz-adv-x="1681" unicode="Ó"/><glyph d="M1452 758q0 297 -161 489.5t-449.5 192.5t-449.5 -192.5t-161 -489.5q0 -311 154 -496.5t457 -185.5t456.5 185.5t153.5 496.5zM1554 758q0 -356 -181 -565t-531 -209t-531.5 208.5t-181.5 565.5q0 346 186.5 559t526.5 213t526 -213t186 -559zM866 1839l197 -205 l-47 -39l-176 154l-176 -154l-48 39l197 205h53z" glyph-name="Ocircumflex" horiz-adv-x="1681" unicode="Ô"/><glyph d="M1452 758q0 297 -161 489.5t-449.5 192.5t-449.5 -192.5t-161 -489.5q0 -311 154 -496.5t457 -185.5t456.5 185.5t153.5 496.5zM1554 758q0 -356 -181 -565t-531 -209t-531.5 208.5t-181.5 565.5q0 346 186.5 559t526.5 213t526 -213t186 -559zM1116 1825l55 -27 q-66 -184 -184 -184q-49 0 -91 20.5t-67.5 46t-58.5 46t-63 20.5q-47 0 -83 -43t-53 -96l-55 26q63 184 184 185q47 0 89 -20.5t68 -46.5t58.5 -46t65.5 -20q45 0 82 43t53 96z" glyph-name="Otilde" horiz-adv-x="1681" unicode="Õ"/><glyph d="M1024 1784v-131h-133v131h133zM772 1784v-131h-133v131h133zM1452 758q0 297 -161 489.5t-449.5 192.5t-449.5 -192.5t-161 -489.5q0 -311 154 -496.5t457 -185.5t456.5 185.5t153.5 496.5zM1554 758q0 -356 -181 -565t-531 -209t-531.5 208.5t-181.5 565.5 q0 346 186.5 559t526.5 213t526 -213t186 -559z" glyph-name="Odieresis" horiz-adv-x="1681" unicode="Ö"/><glyph d="M584 688l313 -313l-61 -62l-314 312l-317 -318l-64 64l318 317l-285 285l64 63l284 -286l281 280l61 -61z" glyph-name="multiply" horiz-adv-x="1058" unicode="×"/><glyph d="M412 233l774 1106q-150 100 -344 101q-291 0 -451 -193.5t-160 -490.5q1 -345 181 -523zM1452 756q0 336 -186 516l-774 -1104q145 -94 350 -94q303 0 456.5 185.5t153.5 496.5zM1554 756q0 -354 -182 -563t-530 -209q-236 0 -406 106l-143 -209l-86 60l147 209 q-225 199 -225 606q0 346 186.5 560t526.5 214q231 0 399 -111l150 213l86 -59l-152 -215q229 -205 229 -602z" glyph-name="Oslash" horiz-adv-x="1681" unicode="Ø"/><glyph d="M1405 1516v-885q0 -311 -153.5 -478t-461 -167t-460 165.5t-152.5 479.5v885h103v-877q0 -561 509.5 -561t509.5 561v877h105zM752 1864l112 -260l-59 -21l-150 244z" glyph-name="Ugrave" horiz-adv-x="1581" unicode="Ù"/><glyph d="M1405 1516v-885q0 -311 -153.5 -478t-461 -167t-460 165.5t-152.5 479.5v885h103v-877q0 -561 509.5 -561t509.5 561v877h105zM885 1864l96 -37l-152 -244l-57 21z" glyph-name="Uacute" horiz-adv-x="1581" unicode="Ú"/><glyph d="M1405 1516v-885q0 -311 -153.5 -478t-461 -167t-460 165.5t-152.5 479.5v885h103v-877q0 -561 509.5 -561t509.5 561v877h105zM819 1839l195 -205l-47 -39l-174 154l-177 -154l-47 39l195 205h55z" glyph-name="Ucircumflex" horiz-adv-x="1581" unicode="Û"/><glyph d="M975 1784v-131h-133v131h133zM723 1784v-131h-133v131h133zM1405 1516v-885q0 -311 -153.5 -478t-461 -167t-460 165.5t-152.5 479.5v885h103v-877q0 -561 509.5 -561t509.5 561v877h105z" glyph-name="Udieresis" horiz-adv-x="1581" unicode="Ü"/><glyph d="M1348 1516h114l-635 -934v-582h-104v582l-633 934h115l571 -854zM825 1864l97 -37l-152 -244l-57 21z" glyph-name="Yacute" horiz-adv-x="1429" unicode="Ý"/><glyph d="M1137 821q0 172 -106.5 256t-282.5 84h-533v-659h543q49 0 127 20q252 74 252 299zM1241 821q0 -190 -139 -297.5t-334 -107.5h-553v-416h-104v1516h104v-267h541q217 0 351 -107.5t134 -320.5z" glyph-name="Thorn" horiz-adv-x="1353" unicode="Þ"/><glyph d="M958 399q0 -166 -105 -290.5t-269 -124.5q-96 0 -176 57l26 80q70 -49 150 -49q129 0 203.5 103.5t74.5 236.5t-75.5 233t-202.5 100h-135v78h88q117 0 185.5 93.5t68.5 213.5q0 123 -73 215.5t-191.5 92.5t-190.5 -92.5t-72 -215.5v-1120h-96v1131q0 158 101.5 272.5 t257 114.5t258 -115t102.5 -272q0 -109 -50.5 -202t-140.5 -142q123 -41 192.5 -152t69.5 -246z" glyph-name="germandbls" horiz-adv-x="1116" unicode="ß"/><glyph d="M989 219v608q-236 184 -401 185q-131 0 -216 -69t-118 -169t-33 -231q0 -207 86 -335t281 -128q29 0 57.5 4t62 14.5t56 17.5t61.5 24.5t54.5 24.5t58.5 28.5zM1087 1094v-1094h-79l-11 123q-10 -4 -48 -22.5t-51 -24.5t-49 -22.5t-54.5 -22.5t-51 -17.5t-55 -15.5 t-52.5 -8t-56 -4q-233 0 -347 157.5t-114 401.5q0 115 24.5 212t75.5 178t140.5 127t207.5 46q205 0 422 -174v160h98zM555 1464l113 -260l-60 -20l-149 243z" glyph-name="agrave" horiz-adv-x="1253" unicode="à"/><glyph d="M989 219v608q-236 184 -401 185q-131 0 -216 -69t-118 -169t-33 -231q0 -207 86 -335t281 -128q29 0 57.5 4t62 14.5t56 17.5t61.5 24.5t54.5 24.5t58.5 28.5zM1087 1094v-1094h-79l-11 123q-10 -4 -48 -22.5t-51 -24.5t-49 -22.5t-54.5 -22.5t-51 -17.5t-55 -15.5 t-52.5 -8t-56 -4q-233 0 -347 157.5t-114 401.5q0 115 24.5 212t75.5 178t140.5 127t207.5 46q205 0 422 -174v160h98zM715 1464l96 -37l-152 -243l-57 20z" glyph-name="aacute" horiz-adv-x="1253" unicode="á"/><glyph d="M989 219v608q-236 184 -401 185q-131 0 -216 -69t-118 -169t-33 -231q0 -207 86 -335t281 -128q29 0 57.5 4t62 14.5t56 17.5t61.5 24.5t54.5 24.5t58.5 28.5zM1087 1094v-1094h-79l-11 123q-10 -4 -48 -22.5t-51 -24.5t-49 -22.5t-54.5 -22.5t-51 -17.5t-55 -15.5 t-52.5 -8t-56 -4q-233 0 -347 157.5t-114 401.5q0 115 24.5 212t75.5 178t140.5 127t207.5 46q205 0 422 -174v160h98zM633 1440l194 -205l-47 -39l-174 154l-176 -154l-47 39l195 205h55z" glyph-name="acircumflex" horiz-adv-x="1253" unicode="â"/><glyph d="M989 219v608q-236 184 -401 185q-131 0 -216 -69t-118 -169t-33 -231q0 -207 86 -335t281 -128q29 0 57.5 4t62 14.5t56 17.5t61.5 24.5t54.5 24.5t58.5 28.5zM1087 1094v-1094h-79l-11 123q-10 -4 -48 -22.5t-51 -24.5t-49 -22.5t-54.5 -22.5t-51 -17.5t-55 -15.5 t-52.5 -8t-56 -4q-233 0 -347 157.5t-114 401.5q0 115 24.5 212t75.5 178t140.5 127t207.5 46q205 0 422 -174v160h98zM885 1425l55 -26q-25 -76 -71 -130.5t-113 -54.5q-61 0 -110.5 34t-90.5 67t-80 33q-47 0 -83 -43t-52 -97l-55 27q63 184 184 184q78 0 158 -66.5 t123 -66.5q45 0 82 43t53 96z" glyph-name="atilde" horiz-adv-x="1253" unicode="ã"/><glyph d="M799 1384v-131h-133v131h133zM547 1384v-131h-133v131h133zM989 219v608q-236 184 -401 185q-131 0 -216 -69t-118 -169t-33 -231q0 -207 86 -335t281 -128q29 0 57.5 4t62 14.5t56 17.5t61.5 24.5t54.5 24.5t58.5 28.5zM1087 1094v-1094h-79l-11 123q-10 -4 -48 -22.5 t-51 -24.5t-49 -22.5t-54.5 -22.5t-51 -17.5t-55 -15.5t-52.5 -8t-56 -4q-233 0 -347 157.5t-114 401.5q0 115 24.5 212t75.5 178t140.5 127t207.5 46q205 0 422 -174v160h98z" glyph-name="adieresis" horiz-adv-x="1253" unicode="ä"/><glyph d="M989 219v608q-236 184 -401 185q-131 0 -216 -69t-118 -169t-33 -231q0 -207 86 -335t281 -128q29 0 57.5 4t62 14.5t56 17.5t61.5 24.5t54.5 24.5t58.5 28.5zM1087 1094v-1094h-79l-11 123q-10 -4 -48 -22.5t-51 -24.5t-49 -22.5t-54.5 -22.5t-51 -17.5t-55 -15.5 t-52.5 -8t-56 -4q-233 0 -347 157.5t-114 401.5q0 115 24.5 212t75.5 178t140.5 127t207.5 46q205 0 422 -174v160h98zM655 1321q0 16 -13 29.5t-29.5 13.5t-30 -13.5t-13.5 -29.5q0 -18 12.5 -31.5t31 -13.5t30.5 13.5t12 31.5zM713 1321q0 -41 -30 -70.5t-71 -29.5 t-70.5 29.5t-29.5 70.5t29.5 70.5t70.5 29.5t71 -29.5t30 -70.5z" glyph-name="aring" horiz-adv-x="1253" unicode="å"/><glyph d="M930 186q-92 135 -99 320h-51q-80 2 -159.5 -5t-185 -27.5t-171 -73t-65.5 -130.5q0 -223 360 -223q166 0 371 139zM938 586h811q-23 422 -371 422q-190 0 -307 -114.5t-133 -307.5zM1847 530q0 -18 -2 -28h-909q8 -199 127 -325t315 -126q20 0 113 17q109 16 301 65 l14 -82q-178 -49 -340 -71q-72 -10 -88 -11q-244 0 -395 154q-90 -66 -215 -114t-225 -48q-84 0 -156 12.5t-140.5 43t-108.5 93t-40 152.5q0 111 80 183.5t208 101t235.5 37t212.5 4.5q2 10 3 29.5t1 25.5q0 10 5 40t5 44q0 135 -64.5 198.5t-199.5 63.5q-221 0 -406 -174 l-37 62q186 197 459 196q264 0 309 -227q70 123 194 184.5t275 61.5q246 0 357.5 -152t111.5 -410z" glyph-name="ae" horiz-adv-x="1976" unicode="æ"/><glyph d="M858 -258q0 -72 -66.5 -101.5t-150.5 -29.5q-86 0 -182 27l33 61q82 -23 137 -23q47 0 97 15.5t50 52.5q0 70 -137 70q-45 0 -92 -7l-41 39l104 140q-227 18 -359 169.5t-132 389.5q0 256 146.5 408.5t400.5 152.5q150 0 272.5 -61.5t191.5 -184.5l-88 -43 q-57 100 -156.5 151.5t-219.5 51.5q-209 0 -327 -131t-118 -344q0 -209 120 -343t325 -134q248 0 364 188l88 -41q-137 -217 -424 -231l-88 -115q37 6 78 6q174 0 174 -133z" glyph-name="ccedilla" horiz-adv-x="1234" unicode="ç"/><glyph d="M227 600h809q-18 422 -370 422q-190 0 -307.5 -114.5t-131.5 -307.5zM1135 516h-910q6 -197 123 -323.5t309 -126.5q123 0 422 84l15 -84q-301 -82 -428 -82q-250 0 -398.5 154.5t-148.5 406.5q0 256 146.5 408.5t400.5 152.5q127 0 220 -43t146 -123t78 -179t25 -224 v-21zM559 1464l113 -260l-60 -20l-149 243z" glyph-name="egrave" horiz-adv-x="1251" unicode="è"/><glyph d="M227 600h809q-18 422 -370 422q-190 0 -307.5 -114.5t-131.5 -307.5zM1135 516h-910q6 -197 123 -323.5t309 -126.5q123 0 422 84l15 -84q-301 -82 -428 -82q-250 0 -398.5 154.5t-148.5 406.5q0 256 146.5 408.5t400.5 152.5q127 0 220 -43t146 -123t78 -179t25 -224 v-21zM721 1464l96 -37l-151 -243l-58 20z" glyph-name="eacute" horiz-adv-x="1251" unicode="é"/><glyph d="M227 600h809q-18 422 -370 422q-190 0 -307.5 -114.5t-131.5 -307.5zM1135 516h-910q6 -197 123 -323.5t309 -126.5q123 0 422 84l15 -84q-301 -82 -428 -82q-250 0 -398.5 154.5t-148.5 406.5q0 256 146.5 408.5t400.5 152.5q127 0 220 -43t146 -123t78 -179t25 -224 v-21zM659 1440l195 -205l-47 -39l-174 154l-176 -154l-47 39l194 205h55z" glyph-name="ecircumflex" horiz-adv-x="1251" unicode="ê"/><glyph d="M819 1384v-131h-133v131h133zM567 1384v-131h-133v131h133zM227 600h809q-18 422 -370 422q-190 0 -307.5 -114.5t-131.5 -307.5zM1135 516h-910q6 -197 123 -323.5t309 -126.5q123 0 422 84l15 -84q-301 -82 -428 -82q-250 0 -398.5 154.5t-148.5 406.5 q0 256 146.5 408.5t400.5 152.5q127 0 220 -43t146 -123t78 -179t25 -224v-21z" glyph-name="edieresis" horiz-adv-x="1263" unicode="ë"/><glyph d="M250 1094v-1094h-98v1094h98zM131 1464l113 -260l-58 -20l-151 243z" glyph-name="igrave" horiz-adv-x="411" unicode="ì"/><glyph d="M250 1094v-1094h-98v1094h98zM276 1464l97 -37l-150 -243l-59 20z" glyph-name="iacute" horiz-adv-x="411" unicode="í"/><glyph d="M250 1094v-1094h-98v1094h98zM229 1440l197 -205l-47 -39l-176 154l-176 -154l-47 39l196 205h53z" glyph-name="icircumflex" horiz-adv-x="411" unicode="î"/><glyph d="M395 1384v-131h-133v131h133zM143 1384v-131h-133v131h133zM250 1094v-1094h-98v1094h98z" glyph-name="idieresis" horiz-adv-x="411" unicode="ï"/><glyph d="M985 457q0 184 -100.5 298.5t-282.5 114.5t-282.5 -114.5t-100.5 -298.5q0 -182 102.5 -298t280.5 -116t280.5 116t102.5 298zM1061 1524l61 -72l-231 -195q213 -309 213 -671q0 -145 -37 -281q-45 -164 -169 -254t-296 -90q-219 0 -351 137.5t-132 358.5q0 225 130 361 t353 136q272 0 391 -200q-37 233 -174 442l-219 -182l-61 73l223 187q-100 129 -225 213l55 65q129 -84 242 -219z" glyph-name="eth" horiz-adv-x="1277" unicode="ð"/><glyph d="M1081 776v-776h-98v756q0 125 -80 190.5t-205 65.5q-147 0 -432 -211v-801h-98v1094h88l8 -185q274 199 473 199q147 0 245.5 -92.5t98.5 -239.5zM893 1425l55 -26q-63 -184 -184 -185q-61 0 -111.5 34t-90.5 67t-79 33q-47 0 -82.5 -43t-52.5 -97l-55 27q63 184 184 184 q59 0 109.5 -33.5t91.5 -66.5t80 -33q45 0 82 43t53 96z" glyph-name="ntilde" horiz-adv-x="1249" unicode="ñ"/><glyph d="M1110 545q0 211 -118 344t-326.5 133t-326.5 -133t-118 -344q0 -209 119 -343t325.5 -134t325.5 134t119 343zM1212 545q0 -252 -148.5 -406.5t-398 -154.5t-398 154.5t-148.5 406.5q0 256 146.5 408.5t400.5 152.5t400 -152.5t146 -408.5zM567 1464l113 -260l-57 -20 l-152 243z" glyph-name="ograve" horiz-adv-x="1368" unicode="ò"/><glyph d="M1110 545q0 211 -118 344t-326.5 133t-326.5 -133t-118 -344q0 -209 119 -343t325.5 -134t325.5 134t119 343zM1212 545q0 -252 -148.5 -406.5t-398 -154.5t-398 154.5t-148.5 406.5q0 256 146.5 408.5t400.5 152.5t400 -152.5t146 -408.5zM760 1464l96 -37l-151 -243 l-58 20z" glyph-name="oacute" horiz-adv-x="1370" unicode="ó"/><glyph d="M1110 545q0 211 -118 344t-326.5 133t-326.5 -133t-118 -344q0 -209 119 -343t325.5 -134t325.5 134t119 343zM1212 545q0 -252 -148.5 -406.5t-398 -154.5t-398 154.5t-148.5 406.5q0 256 146.5 408.5t400.5 152.5t400 -152.5t146 -408.5zM688 1440l195 -205l-47 -39 l-174 154l-177 -154l-47 39l195 205h55z" glyph-name="ocircumflex" horiz-adv-x="1370" unicode="ô"/><glyph d="M1110 545q0 211 -118 344t-326.5 133t-326.5 -133t-118 -344q0 -209 119 -343t325.5 -134t325.5 134t119 343zM1212 545q0 -252 -148.5 -406.5t-398 -154.5t-398 154.5t-148.5 406.5q0 256 146.5 408.5t400.5 152.5t400 -152.5t146 -408.5zM936 1425l55 -26 q-25 -76 -71 -130.5t-113 -54.5q-61 0 -110.5 34t-90.5 67t-80 33q-47 0 -82.5 -43t-52.5 -97l-55 27q63 184 184 184q78 0 158 -66.5t123 -66.5q45 0 82 43t53 96z" glyph-name="otilde" horiz-adv-x="1370" unicode="õ"/><glyph d="M862 1384v-131h-133v131h133zM610 1384v-131h-133v131h133zM1110 545q0 211 -118 344t-326.5 133t-326.5 -133t-118 -344q0 -209 119 -343t325.5 -134t325.5 134t119 343zM1212 545q0 -252 -148.5 -406.5t-398 -154.5t-398 154.5t-148.5 406.5q0 256 146.5 408.5 t400.5 152.5t400 -152.5t146 -408.5z" glyph-name="odieresis" horiz-adv-x="1329" unicode="ö"/><glyph d="M678 317.5q0 -28.5 -21.5 -51t-50.5 -22.5q-31 0 -51 21.5t-20 51.5q0 29 21.5 50.5t50 21.5t50 -21.5t21.5 -50zM1069 758v-88h-928v88h928zM678 1112q0 -29 -21.5 -50.5t-50 -21.5t-50 21.5t-21.5 50.5q0 31 20 51.5t51 20.5q29 0 50.5 -21.5t21.5 -50.5z" glyph-name="divide" horiz-adv-x="1230" unicode="÷"/><glyph d="M354 190l541 773q-98 57 -229 57q-209 0 -326 -132t-117 -343q0 -224 131 -355zM1108 545q0 227 -131 356l-541 -776q98 -57 230 -57q207 0 324.5 134t117.5 343zM1212 545q0 -252 -148.5 -406.5t-397.5 -154.5q-162 0 -281 69l-100 -143l-84 59l98 142 q-180 152 -180 434q0 256 146.5 408.5t400.5 152.5q160 0 282 -68l99 140l83 -60l-94 -137q176 -147 176 -436z" glyph-name="oslash" horiz-adv-x="1329" unicode="ø"/><glyph d="M1081 1094v-1094h-84l-12 186q-104 -80 -235.5 -140t-237.5 -60q-145 0 -244.5 93t-99.5 238v777h98v-756q0 -125 79 -191.5t206 -66.5q150 0 432 213v801h98zM557 1464l113 -260l-60 -20l-149 243z" glyph-name="ugrave" horiz-adv-x="1249" unicode="ù"/><glyph d="M1081 1094v-1094h-84l-12 186q-104 -80 -235.5 -140t-237.5 -60q-145 0 -244.5 93t-99.5 238v777h98v-756q0 -125 79 -191.5t206 -66.5q150 0 432 213v801h98zM696 1464l97 -37l-150 -243l-59 20z" glyph-name="uacute" horiz-adv-x="1249" unicode="ú"/><glyph d="M1081 1094v-1094h-84l-12 186q-104 -80 -235.5 -140t-237.5 -60q-145 0 -244.5 93t-99.5 238v777h98v-756q0 -125 79 -191.5t206 -66.5q150 0 432 213v801h98zM651 1440l197 -205l-47 -39l-176 154l-176 -154l-48 39l197 205h53z" glyph-name="ucircumflex" horiz-adv-x="1249" unicode="û"/><glyph d="M799 1384v-131h-133v131h133zM547 1384v-131h-133v131h133zM1081 1094v-1094h-84l-12 186q-104 -80 -235.5 -140t-237.5 -60q-145 0 -244.5 93t-99.5 238v777h98v-756q0 -125 79 -191.5t206 -66.5q150 0 432 213v801h98z" glyph-name="udieresis" horiz-adv-x="1249" unicode="ü"/><glyph d="M965 1094h104l-625 -1583h-106l233 587l-491 996h106l430 -893zM666 1464l96 -37l-150 -243l-59 20z" glyph-name="yacute" horiz-adv-x="1148" unicode="ý"/><glyph d="M1071 543q0 203 -88 336t-283 133q-143 0 -389 -164l-4 -637q25 -10 92.5 -43t104.5 -48.5t94 -30.5t107 -15q195 0 280.5 131t85.5 338zM1174 545q0 -158 -45.5 -280t-153 -200.5t-266.5 -78.5q-23 0 -46.5 2t-50 8t-44 10t-48.5 15.5t-42 15.5t-46 20.5t-42 19.5 t-46 21.5t-41 20.5v-611h-98v1819h98v-391q207 172 418 172q158 0 263.5 -82t147.5 -203.5t42 -277.5z" glyph-name="thorn" horiz-adv-x="1400" unicode="þ"/><glyph d="M793 1384v-131h-134v131h134zM541 1384v-131h-133v131h133zM965 1094h104l-625 -1583h-106l233 587l-491 996h106l430 -893z" glyph-name="ydieresis" horiz-adv-x="1148" unicode="ÿ"/><glyph d="M250 1094v-1094h-98v1094h98z" glyph-name="dotlessi" horiz-adv-x="411" unicode="ı"/><glyph d="M1155 90v-90h-977v803l-342 -197l-51 90l393 226v594h105v-535l340 199l51 -90l-391 -228v-772h872z" glyph-name="Lslash" horiz-adv-x="1251" unicode="Ł"/><glyph d="M432 1026l51 -90l-217 -127v-809h-98v754l-166 -97l-53 91l219 124v641h98v-583z" glyph-name="lslash" horiz-adv-x="432" unicode="ł"/><glyph d="M1409 473v590q0 23 -53 115q-80 137 -215 208.5t-297 71.5q-291 0 -451 -192.5t-160 -489.5q0 -311 154 -497.5t457 -186.5q358 0 516 270q49 99 49 111zM2384 88v-88h-975v260q-184 -256 -565 -256q-350 0 -531.5 208t-181.5 564q0 346 186.5 559t526.5 213 q172 0 321.5 -67.5t243.5 -200.5v236h975v-89h-873v-606h773v-90h-773v-643h873z" glyph-name="OE" horiz-adv-x="2531" unicode="Œ"/><glyph d="M1104 498q0 100 -8 166q-23 166 -142.5 261t-287.5 95q-209 0 -326 -132t-117 -343q0 -209 118 -343t325 -134q158 0 270.5 86t150.5 237q17 66 17 107zM1210 600h809q-18 422 -370 422q-190 0 -307.5 -114.5t-131.5 -307.5zM2118 516h-910q6 -199 125 -324.5t316 -125.5 q33 0 145 20q135 29 270 61l15 -81q-199 -53 -357 -74q-45 -8 -73 -8q-164 0 -296 76.5t-196 222.5q-63 -145 -195.5 -222t-295.5 -77q-250 0 -398.5 154.5t-148.5 406.5q0 256 146.5 408.5t400.5 152.5q166 0 298 -75t193 -220q61 145 193.5 220t298.5 75q258 0 363.5 -159 t105.5 -431z" glyph-name="oe" horiz-adv-x="2246" unicode="œ"/><glyph d="M1317 389q0 -102 -54.5 -183t-141.5 -127t-182 -70.5t-189 -24.5q-287 0 -621 145l25 92q334 -143 602 -143q98 0 196.5 29.5t176 103.5t77.5 176q0 76 -35.5 136.5t-84 97t-128 67.5t-132 45.5t-134.5 30.5q-229 49 -309 82q-205 90 -205 289q0 104 54.5 184t142.5 124 t183 66.5t190 22.5q205 0 536 -127l-20 -90q-324 121 -510 121q-74 0 -150 -15.5t-150.5 -48.5t-121.5 -94t-47 -141q0 -82 57 -136.5t147.5 -84t201 -53t221 -55.5t200.5 -78t147.5 -133t57.5 -208zM915 1839l48 -41l-197 -203h-53l-197 203l47 41l176 -153z" glyph-name="Scaron" horiz-adv-x="1443" unicode="Š"/><glyph d="M997 283q0 -102 -71.5 -174t-164.5 -99.5t-192 -27.5q-174 0 -450 104l22 86q254 -96 430 -96q121 0 223.5 49t102.5 156q0 100 -76 158.5t-184.5 83t-216 50t-183 86t-75.5 164.5q0 98 66.5 168t154.5 96.5t184 26.5q160 0 394 -88l-25 -88q-223 84 -363 84 q-55 0 -104 -8t-99.5 -27.5t-80 -60.5t-29.5 -99q0 -55 41 -93t105.5 -58.5t143.5 -37.5t157.5 -42t143 -58.5t105.5 -99t41 -155.5zM741 1440l47 -41l-196 -203h-53l-197 203l47 41l176 -154z" glyph-name="scaron" horiz-adv-x="1112" unicode="š"/><glyph d="M971 1784v-131h-133v131h133zM719 1784v-131h-133v131h133zM1348 1516h114l-635 -934v-582h-104v582l-633 934h115l571 -854z" glyph-name="Ydieresis" horiz-adv-x="1531" unicode="Ÿ"/><glyph d="M1311 90v-90h-1172v82l1018 1343h-1007v91h1144v-72l-1026 -1354h1043zM889 1839l47 -41l-197 -203h-53l-197 203l48 41l176 -153z" glyph-name="Zcaron" horiz-adv-x="1447" unicode="Ž"/><glyph d="M1051 84v-84h-918v68l780 942h-751v84h882v-70l-774 -940h781zM778 1440l47 -41l-194 -203h-56l-194 203l47 41l176 -154z" glyph-name="zcaron" horiz-adv-x="1183" unicode="ž"/><glyph d="M981 1507l-29 -84q-47 14 -82 15q-246 0 -286 -232l-21 -112h283l-15 -80h-282l-199 -1135q-27 -150 -124 -230.5t-249 -80.5q-57 0 -122 20l30 82q41 -12 80 -12q246 0 287 231l199 1125h-162l14 80h162l22 120q29 150 125.5 231t245.5 81q53 -1 123 -19z" glyph-name="florin" horiz-adv-x="1064" unicode="ƒ"/><glyph d="M412 1440l196 -205l-47 -39l-176 154l-176 -154l-47 39l196 205h54z" glyph-name="circumflex" horiz-adv-x="770" unicode="ˆ"/><glyph d="M561 1440l47 -41l-196 -203h-54l-196 203l47 41l176 -154z" glyph-name="caron" horiz-adv-x="770" unicode="ˇ"/><glyph d="M717 1411l43 -31q-100 -178 -299 -178t-299 178l43 31q86 -135 256 -135t256 135z" glyph-name="breve" horiz-adv-x="921" unicode="˘"/><glyph d="M307 1317q0 -31 -21.5 -51.5t-52.5 -20.5q-29 0 -50 21.5t-21 50.5q0 31 20.5 52.5t51 21.5t52 -21.5t21.5 -52.5z" glyph-name="dotaccent" horiz-adv-x="468" unicode="˙"/><glyph d="M307 1321q0 18 -13 30.5t-32 12.5q-16 0 -29.5 -13.5t-13.5 -29.5q0 -18 12.5 -31.5t31 -13.5t31.5 13.5t13 31.5zM365 1321q0 -43 -30 -71.5t-73 -28.5q-41 0 -70.5 29.5t-29.5 70.5t29.5 70.5t70.5 29.5q43 0 73 -28.5t30 -71.5z" glyph-name="ring" horiz-adv-x="526" unicode="˚"/><glyph d="M485 -291l27 -59q-68 -43 -150 -43q-201 0 -200 149q0 100 178 244h90q-184 -164 -184 -242q0 -80 123 -80q46 0 116 31z" glyph-name="ogonek" horiz-adv-x="673" unicode="˛"/><glyph d="M762 1425l55 -26q-25 -76 -71 -130.5t-113 -54.5q-61 0 -110.5 34t-90.5 67t-80 33q-47 0 -83 -43t-52 -97l-55 27q63 184 184 184q78 0 158 -66.5t123 -66.5q45 0 82 43t53 96z" glyph-name="tilde" horiz-adv-x="978" unicode="˜"/><glyph d="M254 1464l96 -37l-149 -243l-60 20zM477 1464l96 -37l-151 -243l-57 20z" glyph-name="hungarumlaut" horiz-adv-x="735" unicode="˝"/><glyph d="M1356 1151v-90h-228v-1225h-102v1225h-481v-1225h-103v1225h-227v90h1141z" glyph-name="pi" horiz-adv-x="1519" unicode="π"/><glyph d="M1130 582v-88h-989v88h989z" glyph-name="endash" horiz-adv-x="1271" unicode="–"/><glyph d="M2255 582v-88h-2114v88h2114z" glyph-name="emdash" horiz-adv-x="2396" unicode="—"/><glyph d="M147 1229v133l62 166h59l-43 -166h56v-133h-134z" glyph-name="quoteleft" horiz-adv-x="446" unicode="‘"/><glyph d="M281 1528v-133l-62 -166h-59l43 166h-56v133h134z" glyph-name="quoteright" horiz-adv-x="446" unicode="’"/><glyph d="M281 133v-133l-62 -166h-59l43 166h-56v133h134z" glyph-name="quotesinglbase" horiz-adv-x="423" unicode="‚"/><glyph d="M147 1229v133l62 166h59l-43 -166h56v-133h-134zM375 1229v133l61 166h60l-43 -166h55v-133h-133z" glyph-name="quotedblleft" horiz-adv-x="630" unicode="“"/><glyph d="M508 1528v-133l-62 -166h-57l43 166h-57v133h133zM281 1528v-133l-62 -166h-59l43 166h-56v133h134z" glyph-name="quotedblright" horiz-adv-x="630" unicode="”"/><glyph d="M508 133v-133l-62 -166h-57l43 166h-57v133h133zM281 133v-133l-62 -166h-59l43 166h-56v133h134z" glyph-name="quotedblbase" horiz-adv-x="630" unicode="„"/><glyph d="M1229 1110v-90h-494v-1081h-102v1081h-492v90h492v504h102v-504h494z" glyph-name="dagger" horiz-adv-x="1390" unicode="†"/><glyph d="M1229 602v-90h-494v-573h-102v573h-492v90h492v418h-492v90h492v504h102v-504h494v-90h-494v-418h494z" glyph-name="daggerdbl" horiz-adv-x="1390" unicode="‡"/><glyph d="M287 534.5q0 -30.5 -21.5 -51t-52.5 -20.5q-29 0 -50.5 21.5t-21.5 50.5q0 31 20.5 52t51.5 21t52.5 -21.5t21.5 -52z" glyph-name="bullet" horiz-adv-x="448" unicode="•"/><glyph d="M1044 133v-133h-135v133h135zM664 133v-133h-136v133h136zM283 133v-133h-136v133h136z" glyph-name="ellipsis" horiz-adv-x="1257" unicode="…"/><glyph d="M700 1142.5q0 319.5 -243 319.5q-242 0 -242 -319.5t242 -319.5q243 0 243 319.5zM1790 371q0 139 -56.5 228t-187.5 89t-187 -89t-56 -228q0 -319 243.5 -319t243.5 319zM2527 371q0 317 -241 317q-244 0 -244 -317q0 -319 244 -320q241 1 241 320zM788 1143 q0 -395 -331 -395q-172 0 -251 107.5t-79 287.5t79 287.5t251 107.5t251.5 -107.5t79.5 -287.5zM1374 1516h105l-846 -1516h-103zM1876 371q0 -180 -79 -289t-251 -109t-250.5 108.5t-78.5 289.5q0 178 78.5 285.5t250.5 107.5t251 -107.5t79 -285.5zM2615 371 q0 -180 -78.5 -289t-250.5 -109q-174 0 -253 107.5t-79 290.5q0 178 80 285.5t252 107.5t250.5 -107.5t78.5 -285.5z" glyph-name="perthousand" horiz-adv-x="2840" unicode="‰"/><glyph d="M178 758l352 -537h-114l-353 537l353 534h114z" glyph-name="guilsinglleft" horiz-adv-x="669" unicode="‹"/><glyph d="M276 1292l353 -534l-353 -537h-114l352 537l-352 534h114z" glyph-name="guilsinglright" horiz-adv-x="700" unicode="›"/><glyph d="M1325 350l90 -43q-74 -162 -214 -242.5t-324 -80.5q-285 0 -434.5 167.5t-176.5 460.5h-123l-4 105h121q0 6 -1 19.5t-1 19.5t1 20.5t1 20.5h-117l-2 102h125q27 293 176.5 461t434.5 168q180 0 319 -78t213 -233l-88 -37q-63 129 -179 194.5t-265 65.5 q-236 0 -359 -147.5t-145 -393.5h467v-102h-475v-41v-39h475v-105h-467q20 -246 143 -392t361 -146q319 0 448 276z" glyph-name="Euro" horiz-adv-x="1581" unicode="€"/><glyph d="M887 1094v-1094h-99v1094h99zM895 1434v-111h-113v111h113zM680 1505l-14 -82q-47 14 -84 15q-246 0 -246 -234v-110h282v-80h-282v-1014h-98v1014h-164v80h164v120q0 152 84 232t233 80q57 -1 125 -21z" glyph-name="uniFB01" horiz-adv-x="1040" unicode="ﬁ"/><glyph d="M680 1505l-14 -82q-47 14 -84 15q-246 0 -246 -234v-110h282v-80h-282v-1014h-98v1014h-164v80h164v120q0 152 84 232t233 80q57 -1 125 -21zM905 1513v-1513h-98v1513h98z" glyph-name="uniFB02" horiz-adv-x="1046" unicode="ﬂ"/></font>
</defs>
</svg>
